<?xml version="1.0" encoding="UTF-8"?>
<svg width="256" height="256" viewBox="0 0 256 256" fill="none" xmlns="http://www.w3.org/2000/svg">
  <defs>
    <linearGradient id="g" x1="0" y1="0" x2="1" y2="1">
      <stop offset="0%" stop-color="#4caf50"/>
      <stop offset="100%" stop-color="#2e7d32"/>
    </linearGradient>
    <filter id="shadow" x="-20%" y="-20%" width="140%" height="140%">
      <feDropShadow dx="0" dy="4" stdDeviation="6" flood-color="#000" flood-opacity="0.2"/>
    </filter>
  </defs>
  <rect x="20" y="40" width="216" height="140" rx="20" fill="url(#g)" filter="url(#shadow)"/>
  <rect x="36" y="60" width="152" height="100" rx="12" fill="#ffffff" fill-opacity="0.12"/>
  <path d="M200 52l32-16v108l-32-16V52z" fill="#ffffff" fill-opacity="0.25"/>
  <circle cx="112" cy="110" r="30" fill="#ffffff"/>
  <circle cx="112" cy="110" r="22" fill="url(#g)"/>
</svg>
<?xml version="1.0" encoding="UTF-8" ?>
<svg version="1.1" width="32" height="32" xmlns="http://www.w3.org/2000/svg" shape-rendering="crispEdges">
<rect x="0" y="0" width="2" height="2" fill="#323C39" />
<rect x="2" y="0" width="2" height="2" fill="#323C39" />
<rect x="4" y="0" width="2" height="2" fill="#323C39" />
<rect x="6" y="0" width="2" height="2" fill="#323C39" />
<rect x="8" y="0" width="2" height="2" fill="#323C39" />
<rect x="10" y="0" width="2" height="2" fill="#323C39" />
<rect x="12" y="0" width="2" height="2" fill="#323C39" />
<rect x="14" y="0" width="2" height="2" fill="#323C39" />
<rect x="16" y="0" width="2" height="2" fill="#323C39" />
<rect x="18" y="0" width="2" height="2" fill="#323C39" />
<rect x="20" y="0" width="2" height="2" fill="#323C39" />
<rect x="22" y="0" width="2" height="2" fill="#323C39" />
<rect x="24" y="0" width="2" height="2" fill="#323C39" />
<rect x="26" y="0" width="2" height="2" fill="#323C39" />
<rect x="28" y="0" width="2" height="2" fill="#323C39" />
<rect x="30" y="0" width="2" height="2" fill="#323C39" />
<rect x="0" y="2" width="2" height="2" fill="#323C39" />
<rect x="2" y="2" width="2" height="2" fill="#37946E" />
<rect x="4" y="2" width="2" height="2" fill="#37946E" />
<rect x="6" y="2" width="2" height="2" fill="#37946E" />
<rect x="8" y="2" width="2" height="2" fill="#37946E" />
<rect x="10" y="2" width="2" height="2" fill="#37946E" />
<rect x="12" y="2" width="2" height="2" fill="#37946E" />
<rect x="14" y="2" width="2" height="2" fill="#37946E" />
<rect x="16" y="2" width="2" height="2" fill="#37946E" />
<rect x="18" y="2" width="2" height="2" fill="#37946E" />
<rect x="20" y="2" width="2" height="2" fill="#37946E" />
<rect x="22" y="2" width="2" height="2" fill="#37946E" />
<rect x="24" y="2" width="2" height="2" fill="#37946E" />
<rect x="26" y="2" width="2" height="2" fill="#37946E" />
<rect x="28" y="2" width="2" height="2" fill="#37946E" />
<rect x="30" y="2" width="2" height="2" fill="#323C39" />
<rect x="0" y="4" width="2" height="2" fill="#323C39" />
<rect x="2" y="4" width="2" height="2" fill="#37946E" />
<rect x="4" y="4" width="2" height="2" fill="#323C39" />
<rect x="6" y="4" width="2" height="2" fill="#6ABE30" />
<rect x="8" y="4" width="2" height="2" fill="#37946E" />
<rect x="10" y="4" width="2" height="2" fill="#37946E" />
<rect x="12" y="4" width="2" height="2" fill="#37946E" />
<rect x="14" y="4" width="2" height="2" fill="#37946E" />
<rect x="16" y="4" width="2" height="2" fill="#37946E" />
<rect x="18" y="4" width="2" height="2" fill="#37946E" />
<rect x="20" y="4" width="2" height="2" fill="#37946E" />
<rect x="22" y="4" width="2" height="2" fill="#37946E" />
<rect x="24" y="4" width="2" height="2" fill="#37946E" />
<rect x="26" y="4" width="2" height="2" fill="#323C39" />
<rect x="28" y="4" width="2" height="2" fill="#37946E" />
<rect x="30" y="4" width="2" height="2" fill="#323C39" />
<rect x="0" y="6" width="2" height="2" fill="#323C39" />
<rect x="2" y="6" width="2" height="2" fill="#37946E" />
<rect x="4" y="6" width="2" height="2" fill="#37946E" />
<rect x="6" y="6" width="2" height="2" fill="#6ABE30" />
<rect x="8" y="6" width="2" height="2" fill="#99E550" />
<rect x="10" y="6" width="2" height="2" fill="#37946E" />
<rect x="12" y="6" width="2" height="2" fill="#37946E" />
<rect x="14" y="6" width="2" height="2" fill="#37946E" />
<rect x="16" y="6" width="2" height="2" fill="#37946E" />
<rect x="18" y="6" width="2" height="2" fill="#37946E" />
<rect x="20" y="6" width="2" height="2" fill="#37946E" />
<rect x="22" y="6" width="2" height="2" fill="#37946E" />
<rect x="24" y="6" width="2" height="2" fill="#37946E" />
<rect x="26" y="6" width="2" height="2" fill="#37946E" />
<rect x="28" y="6" width="2" height="2" fill="#37946E" />
<rect x="30" y="6" width="2" height="2" fill="#323C39" />
<rect x="0" y="8" width="2" height="2" fill="#323C39" />
<rect x="2" y="8" width="2" height="2" fill="#37946E" />
<rect x="4" y="8" width="2" height="2" fill="#37946E" />
<rect x="6" y="8" width="2" height="2" fill="#6ABE30" />
<rect x="8" y="8" width="2" height="2" fill="#6ABE30" />
<rect x="10" y="8" width="2" height="2" fill="#99E550" />
<rect x="12" y="8" width="2" height="2" fill="#99E550" />
<rect x="14" y="8" width="2" height="2" fill="#37946E" />
<rect x="16" y="8" width="2" height="2" fill="#37946E" />
<rect x="18" y="8" width="2" height="2" fill="#37946E" />
<rect x="20" y="8" width="2" height="2" fill="#37946E" />
<rect x="22" y="8" width="2" height="2" fill="#37946E" />
<rect x="24" y="8" width="2" height="2" fill="#37946E" />
<rect x="26" y="8" width="2" height="2" fill="#37946E" />
<rect x="28" y="8" width="2" height="2" fill="#37946E" />
<rect x="30" y="8" width="2" height="2" fill="#323C39" />
<rect x="0" y="10" width="2" height="2" fill="#323C39" />
<rect x="2" y="10" width="2" height="2" fill="#37946E" />
<rect x="4" y="10" width="2" height="2" fill="#37946E" />
<rect x="6" y="10" width="2" height="2" fill="#6ABE30" />
<rect x="8" y="10" width="2" height="2" fill="#6ABE30" />
<rect x="10" y="10" width="2" height="2" fill="#6ABE30" />
<rect x="12" y="10" width="2" height="2" fill="#6ABE30" />
<rect x="14" y="10" width="2" height="2" fill="#99E550" />
<rect x="16" y="10" width="2" height="2" fill="#99E550" />
<rect x="18" y="10" width="2" height="2" fill="#37946E" />
<rect x="20" y="10" width="2" height="2" fill="#37946E" />
<rect x="22" y="10" width="2" height="2" fill="#37946E" />
<rect x="24" y="10" width="2" height="2" fill="#37946E" />
<rect x="26" y="10" width="2" height="2" fill="#37946E" />
<rect x="28" y="10" width="2" height="2" fill="#37946E" />
<rect x="30" y="10" width="2" height="2" fill="#323C39" />
<rect x="0" y="12" width="2" height="2" fill="#323C39" />
<rect x="2" y="12" width="2" height="2" fill="#37946E" />
<rect x="4" y="12" width="2" height="2" fill="#37946E" />
<rect x="6" y="12" width="2" height="2" fill="#6ABE30" />
<rect x="8" y="12" width="2" height="2" fill="#6ABE30" />
<rect x="10" y="12" width="2" height="2" fill="#6ABE30" />
<rect x="12" y="12" width="2" height="2" fill="#6ABE30" />
<rect x="14" y="12" width="2" height="2" fill="#6ABE30" />
<rect x="16" y="12" width="2" height="2" fill="#6ABE30" />
<rect x="18" y="12" width="2" height="2" fill="#99E550" />
<rect x="20" y="12" width="2" height="2" fill="#99E550" />
<rect x="22" y="12" width="2" height="2" fill="#37946E" />
<rect x="24" y="12" width="2" height="2" fill="#37946E" />
<rect x="26" y="12" width="2" height="2" fill="#37946E" />
<rect x="28" y="12" width="2" height="2" fill="#37946E" />
<rect x="30" y="12" width="2" height="2" fill="#323C39" />
<rect x="0" y="14" width="2" height="2" fill="#323C39" />
<rect x="2" y="14" width="2" height="2" fill="#37946E" />
<rect x="4" y="14" width="2" height="2" fill="#37946E" />
<rect x="6" y="14" width="2" height="2" fill="#6ABE30" />
<rect x="8" y="14" width="2" height="2" fill="#6ABE30" />
<rect x="10" y="14" width="2" height="2" fill="#6ABE30" />
<rect x="12" y="14" width="2" height="2" fill="#6ABE30" />
<rect x="14" y="14" width="2" height="2" fill="#6ABE30" />
<rect x="16" y="14" width="2" height="2" fill="#6ABE30" />
<rect x="18" y="14" width="2" height="2" fill="#6ABE30" />
<rect x="20" y="14" width="2" height="2" fill="#6ABE30" />
<rect x="22" y="14" width="2" height="2" fill="#99E550" />
<rect x="24" y="14" width="2" height="2" fill="#99E550" />
<rect x="26" y="14" width="2" height="2" fill="#37946E" />
<rect x="28" y="14" width="2" height="2" fill="#37946E" />
<rect x="30" y="14" width="2" height="2" fill="#323C39" />
<rect x="0" y="16" width="2" height="2" fill="#323C39" />
<rect x="2" y="16" width="2" height="2" fill="#37946E" />
<rect x="4" y="16" width="2" height="2" fill="#37946E" />
<rect x="6" y="16" width="2" height="2" fill="#6ABE30" />
<rect x="8" y="16" width="2" height="2" fill="#6ABE30" />
<rect x="10" y="16" width="2" height="2" fill="#6ABE30" />
<rect x="12" y="16" width="2" height="2" fill="#6ABE30" />
<rect x="14" y="16" width="2" height="2" fill="#6ABE30" />
<rect x="16" y="16" width="2" height="2" fill="#6ABE30" />
<rect x="18" y="16" width="2" height="2" fill="#6ABE30" />
<rect x="20" y="16" width="2" height="2" fill="#6ABE30" />
<rect x="22" y="16" width="2" height="2" fill="#6ABE30" />
<rect x="24" y="16" width="2" height="2" fill="#6ABE30" />
<rect x="26" y="16" width="2" height="2" fill="#37946E" />
<rect x="28" y="16" width="2" height="2" fill="#37946E" />
<rect x="30" y="16" width="2" height="2" fill="#323C39" />
<rect x="0" y="18" width="2" height="2" fill="#323C39" />
<rect x="2" y="18" width="2" height="2" fill="#37946E" />
<rect x="4" y="18" width="2" height="2" fill="#37946E" />
<rect x="6" y="18" width="2" height="2" fill="#6ABE30" />
<rect x="8" y="18" width="2" height="2" fill="#6ABE30" />
<rect x="10" y="18" width="2" height="2" fill="#6ABE30" />
<rect x="12" y="18" width="2" height="2" fill="#6ABE30" />
<rect x="14" y="18" width="2" height="2" fill="#6ABE30" />
<rect x="16" y="18" width="2" height="2" fill="#6ABE30" />
<rect x="18" y="18" width="2" height="2" fill="#6ABE30" />
<rect x="20" y="18" width="2" height="2" fill="#6ABE30" />
<rect x="22" y="18" width="2" height="2" fill="#37946E" />
<rect x="24" y="18" width="2" height="2" fill="#37946E" />
<rect x="26" y="18" width="2" height="2" fill="#37946E" />
<rect x="28" y="18" width="2" height="2" fill="#37946E" />
<rect x="30" y="18" width="2" height="2" fill="#323C39" />
<rect x="0" y="20" width="2" height="2" fill="#323C39" />
<rect x="2" y="20" width="2" height="2" fill="#37946E" />
<rect x="4" y="20" width="2" height="2" fill="#37946E" />
<rect x="6" y="20" width="2" height="2" fill="#6ABE30" />
<rect x="8" y="20" width="2" height="2" fill="#6ABE30" />
<rect x="10" y="20" width="2" height="2" fill="#6ABE30" />
<rect x="12" y="20" width="2" height="2" fill="#6ABE30" />
<rect x="14" y="20" width="2" height="2" fill="#6ABE30" />
<rect x="16" y="20" width="2" height="2" fill="#6ABE30" />
<rect x="18" y="20" width="2" height="2" fill="#37946E" />
<rect x="20" y="20" width="2" height="2" fill="#37946E" />
<rect x="22" y="20" width="2" height="2" fill="#37946E" />
<rect x="24" y="20" width="2" height="2" fill="#37946E" />
<rect x="26" y="20" width="2" height="2" fill="#37946E" />
<rect x="28" y="20" width="2" height="2" fill="#37946E" />
<rect x="30" y="20" width="2" height="2" fill="#323C39" />
<rect x="0" y="22" width="2" height="2" fill="#323C39" />
<rect x="2" y="22" width="2" height="2" fill="#37946E" />
<rect x="4" y="22" width="2" height="2" fill="#37946E" />
<rect x="6" y="22" width="2" height="2" fill="#6ABE30" />
<rect x="8" y="22" width="2" height="2" fill="#6ABE30" />
<rect x="10" y="22" width="2" height="2" fill="#6ABE30" />
<rect x="12" y="22" width="2" height="2" fill="#6ABE30" />
<rect x="14" y="22" width="2" height="2" fill="#37946E" />
<rect x="16" y="22" width="2" height="2" fill="#37946E" />
<rect x="18" y="22" width="2" height="2" fill="#37946E" />
<rect x="20" y="22" width="2" height="2" fill="#37946E" />
<rect x="22" y="22" width="2" height="2" fill="#37946E" />
<rect x="24" y="22" width="2" height="2" fill="#37946E" />
<rect x="26" y="22" width="2" height="2" fill="#37946E" />
<rect x="28" y="22" width="2" height="2" fill="#37946E" />
<rect x="30" y="22" width="2" height="2" fill="#323C39" />
<rect x="0" y="24" width="2" height="2" fill="#323C39" />
<rect x="2" y="24" width="2" height="2" fill="#37946E" />
<rect x="4" y="24" width="2" height="2" fill="#37946E" />
<rect x="6" y="24" width="2" height="2" fill="#6ABE30" />
<rect x="8" y="24" width="2" height="2" fill="#6ABE30" />
<rect x="10" y="24" width="2" height="2" fill="#37946E" />
<rect x="12" y="24" width="2" height="2" fill="#37946E" />
<rect x="14" y="24" width="2" height="2" fill="#37946E" />
<rect x="16" y="24" width="2" height="2" fill="#37946E" />
<rect x="18" y="24" width="2" height="2" fill="#37946E" />
<rect x="20" y="24" width="2" height="2" fill="#37946E" />
<rect x="22" y="24" width="2" height="2" fill="#37946E" />
<rect x="24" y="24" width="2" height="2" fill="#37946E" />
<rect x="26" y="24" width="2" height="2" fill="#37946E" />
<rect x="28" y="24" width="2" height="2" fill="#37946E" />
<rect x="30" y="24" width="2" height="2" fill="#323C39" />
<rect x="0" y="26" width="2" height="2" fill="#323C39" />
<rect x="2" y="26" width="2" height="2" fill="#37946E" />
<rect x="4" y="26" width="2" height="2" fill="#323C39" />
<rect x="6" y="26" width="2" height="2" fill="#6ABE30" />
<rect x="8" y="26" width="2" height="2" fill="#37946E" />
<rect x="10" y="26" width="2" height="2" fill="#37946E" />
<rect x="12" y="26" width="2" height="2" fill="#37946E" />
<rect x="14" y="26" width="2" height="2" fill="#37946E" />
<rect x="16" y="26" width="2" height="2" fill="#37946E" />
<rect x="18" y="26" width="2" height="2" fill="#37946E" />
<rect x="20" y="26" width="2" height="2" fill="#37946E" />
<rect x="22" y="26" width="2" height="2" fill="#37946E" />
<rect x="24" y="26" width="2" height="2" fill="#37946E" />
<rect x="26" y="26" width="2" height="2" fill="#323C39" />
<rect x="28" y="26" width="2" height="2" fill="#37946E" />
<rect x="30" y="26" width="2" height="2" fill="#323C39" />
<rect x="0" y="28" width="2" height="2" fill="#323C39" />
<rect x="2" y="28" width="2" height="2" fill="#37946E" />
<rect x="4" y="28" width="2" height="2" fill="#37946E" />
<rect x="6" y="28" width="2" height="2" fill="#37946E" />
<rect x="8" y="28" width="2" height="2" fill="#37946E" />
<rect x="10" y="28" width="2" height="2" fill="#37946E" />
<rect x="12" y="28" width="2" height="2" fill="#37946E" />
<rect x="14" y="28" width="2" height="2" fill="#37946E" />
<rect x="16" y="28" width="2" height="2" fill="#37946E" />
<rect x="18" y="28" width="2" height="2" fill="#37946E" />
<rect x="20" y="28" width="2" height="2" fill="#37946E" />
<rect x="22" y="28" width="2" height="2" fill="#37946E" />
<rect x="24" y="28" width="2" height="2" fill="#37946E" />
<rect x="26" y="28" width="2" height="2" fill="#37946E" />
<rect x="28" y="28" width="2" height="2" fill="#37946E" />
<rect x="30" y="28" width="2" height="2" fill="#323C39" />
<rect x="0" y="30" width="2" height="2" fill="#323C39" />
<rect x="2" y="30" width="2" height="2" fill="#323C39" />
<rect x="4" y="30" width="2" height="2" fill="#323C39" />
<rect x="6" y="30" width="2" height="2" fill="#323C39" />
<rect x="8" y="30" width="2" height="2" fill="#323C39" />
<rect x="10" y="30" width="2" height="2" fill="#323C39" />
<rect x="12" y="30" width="2" height="2" fill="#323C39" />
<rect x="14" y="30" width="2" height="2" fill="#323C39" />
<rect x="16" y="30" width="2" height="2" fill="#323C39" />
<rect x="18" y="30" width="2" height="2" fill="#323C39" />
<rect x="20" y="30" width="2" height="2" fill="#323C39" />
<rect x="22" y="30" width="2" height="2" fill="#323C39" />
<rect x="24" y="30" width="2" height="2" fill="#323C39" />
<rect x="26" y="30" width="2" height="2" fill="#323C39" />
<rect x="28" y="30" width="2" height="2" fill="#323C39" />
<rect x="30" y="30" width="2" height="2" fill="#323C39" />
</svg>